<svg xmlns="http://www.w3.org/2000/svg" width="640" height="780" viewBox="0 0 640 780" font-family="Segoe UI, Helvetica, Arial, sans-serif">
<rect x="0" y="0" width="640" height="780" rx="14" fill="#ffffff" stroke="#d0d7de"/>
<text x="320.0" y="34" text-anchor="middle" font-size="20" font-weight="700" fill="#1b1b1b">Raspberry Pi 40-pin header (J8)</text>
<text x="320.0" y="56" text-anchor="middle" font-size="12.5" fill="#57606a">Pi Zero W / Zero 2 W · highlighted pins = optical-sensor wiring</text>
<text x="320.0" y="74" text-anchor="middle" font-size="11.5" fill="#57606a">Pin 1 is the square pad (nearest the board corner); count in pairs down the header.</text>
<rect x="283" y="88" width="74" height="591" rx="8" fill="#eef1f4" stroke="#c4cbd3"/>
<rect x="127" y="96.0" width="150" height="22" rx="5" fill="#f5b0a8" stroke="#e07b1a" stroke-width="3"/>
<text x="267" y="106.0" text-anchor="end" font-size="12.5" font-weight="700" fill="#5c1a14">3V3</text>
<text x="137" y="106.0" text-anchor="start" font-size="9.5" fill="#5c1a14" opacity="0.75">3.3V power</text>
<circle cx="300" cy="107.0" r="11" fill="#ffffff" stroke="#e07b1a" stroke-width="3"/>
<text x="300" y="110.5" text-anchor="middle" font-size="10" font-weight="700" fill="#1b1b1b">1</text>
<line x1="127" y1="107.0" x2="113" y2="107.0" stroke="#c2410c" stroke-width="2"/>
<rect x="61" y="96.0" width="52" height="22" rx="11" fill="#c2410c"/>
<text x="87.0" y="110.5" text-anchor="middle" font-size="11.5" font-weight="700" fill="#ffffff">VCC</text>
<rect x="363" y="96.0" width="150" height="22" rx="5" fill="#f4c886" stroke="#00000022" stroke-width="1"/>
<text x="373" y="106.0" text-anchor="start" font-size="12.5" font-weight="600" fill="#5c3a12">5V</text>
<text x="503" y="106.0" text-anchor="end" font-size="9.5" fill="#5c3a12" opacity="0.75">5V power</text>
<circle cx="340" cy="107.0" r="11" fill="#ffffff" stroke="#8a929b" stroke-width="1"/>
<text x="340" y="110.5" text-anchor="middle" font-size="10" font-weight="700" fill="#1b1b1b">2</text>
<rect x="127" y="126.0" width="150" height="22" rx="5" fill="#bfe3c0" stroke="#00000022" stroke-width="1"/>
<text x="267" y="136.0" text-anchor="end" font-size="12.5" font-weight="600" fill="#12401f">GPIO2</text>
<text x="137" y="136.0" text-anchor="start" font-size="9.5" fill="#12401f" opacity="0.75">SDA1 · I2C</text>
<circle cx="300" cy="137.0" r="11" fill="#ffffff" stroke="#8a929b" stroke-width="1"/>
<text x="300" y="140.5" text-anchor="middle" font-size="10" font-weight="700" fill="#1b1b1b">3</text>
<rect x="363" y="126.0" width="150" height="22" rx="5" fill="#f4c886" stroke="#00000022" stroke-width="1"/>
<text x="373" y="136.0" text-anchor="start" font-size="12.5" font-weight="600" fill="#5c3a12">5V</text>
<text x="503" y="136.0" text-anchor="end" font-size="9.5" fill="#5c3a12" opacity="0.75">5V power</text>
<circle cx="340" cy="137.0" r="11" fill="#ffffff" stroke="#8a929b" stroke-width="1"/>
<text x="340" y="140.5" text-anchor="middle" font-size="10" font-weight="700" fill="#1b1b1b">4</text>
<rect x="127" y="156.0" width="150" height="22" rx="5" fill="#bfe3c0" stroke="#00000022" stroke-width="1"/>
<text x="267" y="166.0" text-anchor="end" font-size="12.5" font-weight="600" fill="#12401f">GPIO3</text>
<text x="137" y="166.0" text-anchor="start" font-size="9.5" fill="#12401f" opacity="0.75">SCL1 · I2C</text>
<circle cx="300" cy="167.0" r="11" fill="#ffffff" stroke="#8a929b" stroke-width="1"/>
<text x="300" y="170.5" text-anchor="middle" font-size="10" font-weight="700" fill="#1b1b1b">5</text>
<rect x="363" y="156.0" width="150" height="22" rx="5" fill="#4c4c4c" stroke="#e07b1a" stroke-width="3"/>
<text x="373" y="166.0" text-anchor="start" font-size="12.5" font-weight="700" fill="#ffffff">GND</text>
<text x="503" y="166.0" text-anchor="end" font-size="9.5" fill="#ffffff" opacity="0.75">Ground</text>
<circle cx="340" cy="167.0" r="11" fill="#ffffff" stroke="#e07b1a" stroke-width="3"/>
<text x="340" y="170.5" text-anchor="middle" font-size="10" font-weight="700" fill="#1b1b1b">6</text>
<line x1="513" y1="167.0" x2="527" y2="167.0" stroke="#c2410c" stroke-width="2"/>
<rect x="527" y="156.0" width="52" height="22" rx="11" fill="#c2410c"/>
<text x="553.0" y="170.5" text-anchor="middle" font-size="11.5" font-weight="700" fill="#ffffff">GND</text>
<rect x="127" y="186.0" width="150" height="22" rx="5" fill="#bfe3c0" stroke="#00000022" stroke-width="1"/>
<text x="267" y="196.0" text-anchor="end" font-size="12.5" font-weight="600" fill="#12401f">GPIO4</text>
<text x="137" y="196.0" text-anchor="start" font-size="9.5" fill="#12401f" opacity="0.75">GPCLK0</text>
<circle cx="300" cy="197.0" r="11" fill="#ffffff" stroke="#8a929b" stroke-width="1"/>
<text x="300" y="200.5" text-anchor="middle" font-size="10" font-weight="700" fill="#1b1b1b">7</text>
<rect x="363" y="186.0" width="150" height="22" rx="5" fill="#bfe3c0" stroke="#00000022" stroke-width="1"/>
<text x="373" y="196.0" text-anchor="start" font-size="12.5" font-weight="600" fill="#12401f">GPIO14</text>
<text x="503" y="196.0" text-anchor="end" font-size="9.5" fill="#12401f" opacity="0.75">TXD · UART</text>
<circle cx="340" cy="197.0" r="11" fill="#ffffff" stroke="#8a929b" stroke-width="1"/>
<text x="340" y="200.5" text-anchor="middle" font-size="10" font-weight="700" fill="#1b1b1b">8</text>
<rect x="127" y="216.0" width="150" height="22" rx="5" fill="#4c4c4c" stroke="#00000022" stroke-width="1"/>
<text x="267" y="226.0" text-anchor="end" font-size="12.5" font-weight="600" fill="#ffffff">GND</text>
<text x="137" y="226.0" text-anchor="start" font-size="9.5" fill="#ffffff" opacity="0.75">Ground</text>
<circle cx="300" cy="227.0" r="11" fill="#ffffff" stroke="#8a929b" stroke-width="1"/>
<text x="300" y="230.5" text-anchor="middle" font-size="10" font-weight="700" fill="#1b1b1b">9</text>
<rect x="363" y="216.0" width="150" height="22" rx="5" fill="#bfe3c0" stroke="#00000022" stroke-width="1"/>
<text x="373" y="226.0" text-anchor="start" font-size="12.5" font-weight="600" fill="#12401f">GPIO15</text>
<text x="503" y="226.0" text-anchor="end" font-size="9.5" fill="#12401f" opacity="0.75">RXD · UART</text>
<circle cx="340" cy="227.0" r="11" fill="#ffffff" stroke="#8a929b" stroke-width="1"/>
<text x="340" y="230.5" text-anchor="middle" font-size="10" font-weight="700" fill="#1b1b1b">10</text>
<rect x="127" y="246.0" width="150" height="22" rx="5" fill="#bfe3c0" stroke="#00000022" stroke-width="1"/>
<text x="267" y="256.0" text-anchor="end" font-size="12.5" font-weight="600" fill="#12401f">GPIO17</text>
<circle cx="300" cy="257.0" r="11" fill="#ffffff" stroke="#8a929b" stroke-width="1"/>
<text x="300" y="260.5" text-anchor="middle" font-size="10" font-weight="700" fill="#1b1b1b">11</text>
<rect x="363" y="246.0" width="150" height="22" rx="5" fill="#bfe3c0" stroke="#00000022" stroke-width="1"/>
<text x="373" y="256.0" text-anchor="start" font-size="12.5" font-weight="600" fill="#12401f">GPIO18</text>
<text x="503" y="256.0" text-anchor="end" font-size="9.5" fill="#12401f" opacity="0.75">PCM CLK</text>
<circle cx="340" cy="257.0" r="11" fill="#ffffff" stroke="#8a929b" stroke-width="1"/>
<text x="340" y="260.5" text-anchor="middle" font-size="10" font-weight="700" fill="#1b1b1b">12</text>
<rect x="127" y="276.0" width="150" height="22" rx="5" fill="#bfe3c0" stroke="#00000022" stroke-width="1"/>
<text x="267" y="286.0" text-anchor="end" font-size="12.5" font-weight="600" fill="#12401f">GPIO27</text>
<circle cx="300" cy="287.0" r="11" fill="#ffffff" stroke="#8a929b" stroke-width="1"/>
<text x="300" y="290.5" text-anchor="middle" font-size="10" font-weight="700" fill="#1b1b1b">13</text>
<rect x="363" y="276.0" width="150" height="22" rx="5" fill="#4c4c4c" stroke="#00000022" stroke-width="1"/>
<text x="373" y="286.0" text-anchor="start" font-size="12.5" font-weight="600" fill="#ffffff">GND</text>
<text x="503" y="286.0" text-anchor="end" font-size="9.5" fill="#ffffff" opacity="0.75">Ground</text>
<circle cx="340" cy="287.0" r="11" fill="#ffffff" stroke="#8a929b" stroke-width="1"/>
<text x="340" y="290.5" text-anchor="middle" font-size="10" font-weight="700" fill="#1b1b1b">14</text>
<rect x="127" y="306.0" width="150" height="22" rx="5" fill="#bfe3c0" stroke="#00000022" stroke-width="1"/>
<text x="267" y="316.0" text-anchor="end" font-size="12.5" font-weight="600" fill="#12401f">GPIO22</text>
<circle cx="300" cy="317.0" r="11" fill="#ffffff" stroke="#8a929b" stroke-width="1"/>
<text x="300" y="320.5" text-anchor="middle" font-size="10" font-weight="700" fill="#1b1b1b">15</text>
<rect x="363" y="306.0" width="150" height="22" rx="5" fill="#bfe3c0" stroke="#00000022" stroke-width="1"/>
<text x="373" y="316.0" text-anchor="start" font-size="12.5" font-weight="600" fill="#12401f">GPIO23</text>
<circle cx="340" cy="317.0" r="11" fill="#ffffff" stroke="#8a929b" stroke-width="1"/>
<text x="340" y="320.5" text-anchor="middle" font-size="10" font-weight="700" fill="#1b1b1b">16</text>
<rect x="127" y="336.0" width="150" height="22" rx="5" fill="#f5b0a8" stroke="#00000022" stroke-width="1"/>
<text x="267" y="346.0" text-anchor="end" font-size="12.5" font-weight="600" fill="#5c1a14">3V3</text>
<text x="137" y="346.0" text-anchor="start" font-size="9.5" fill="#5c1a14" opacity="0.75">3.3V power</text>
<circle cx="300" cy="347.0" r="11" fill="#ffffff" stroke="#8a929b" stroke-width="1"/>
<text x="300" y="350.5" text-anchor="middle" font-size="10" font-weight="700" fill="#1b1b1b">17</text>
<rect x="363" y="336.0" width="150" height="22" rx="5" fill="#bfe3c0" stroke="#e07b1a" stroke-width="3"/>
<text x="373" y="346.0" text-anchor="start" font-size="12.5" font-weight="700" fill="#12401f">GPIO24</text>
<circle cx="340" cy="347.0" r="11" fill="#ffffff" stroke="#e07b1a" stroke-width="3"/>
<text x="340" y="350.5" text-anchor="middle" font-size="10" font-weight="700" fill="#1b1b1b">18</text>
<line x1="513" y1="347.0" x2="527" y2="347.0" stroke="#c2410c" stroke-width="2"/>
<rect x="527" y="336.0" width="52" height="22" rx="11" fill="#c2410c"/>
<text x="553.0" y="350.5" text-anchor="middle" font-size="11.5" font-weight="700" fill="#ffffff">OUT</text>
<rect x="127" y="366.0" width="150" height="22" rx="5" fill="#bfe3c0" stroke="#00000022" stroke-width="1"/>
<text x="267" y="376.0" text-anchor="end" font-size="12.5" font-weight="600" fill="#12401f">GPIO10</text>
<text x="137" y="376.0" text-anchor="start" font-size="9.5" fill="#12401f" opacity="0.75">MOSI · SPI</text>
<circle cx="300" cy="377.0" r="11" fill="#ffffff" stroke="#8a929b" stroke-width="1"/>
<text x="300" y="380.5" text-anchor="middle" font-size="10" font-weight="700" fill="#1b1b1b">19</text>
<rect x="363" y="366.0" width="150" height="22" rx="5" fill="#4c4c4c" stroke="#00000022" stroke-width="1"/>
<text x="373" y="376.0" text-anchor="start" font-size="12.5" font-weight="600" fill="#ffffff">GND</text>
<text x="503" y="376.0" text-anchor="end" font-size="9.5" fill="#ffffff" opacity="0.75">Ground</text>
<circle cx="340" cy="377.0" r="11" fill="#ffffff" stroke="#8a929b" stroke-width="1"/>
<text x="340" y="380.5" text-anchor="middle" font-size="10" font-weight="700" fill="#1b1b1b">20</text>
<rect x="127" y="396.0" width="150" height="22" rx="5" fill="#bfe3c0" stroke="#00000022" stroke-width="1"/>
<text x="267" y="406.0" text-anchor="end" font-size="12.5" font-weight="600" fill="#12401f">GPIO9</text>
<text x="137" y="406.0" text-anchor="start" font-size="9.5" fill="#12401f" opacity="0.75">MISO · SPI</text>
<circle cx="300" cy="407.0" r="11" fill="#ffffff" stroke="#8a929b" stroke-width="1"/>
<text x="300" y="410.5" text-anchor="middle" font-size="10" font-weight="700" fill="#1b1b1b">21</text>
<rect x="363" y="396.0" width="150" height="22" rx="5" fill="#bfe3c0" stroke="#00000022" stroke-width="1"/>
<text x="373" y="406.0" text-anchor="start" font-size="12.5" font-weight="600" fill="#12401f">GPIO25</text>
<circle cx="340" cy="407.0" r="11" fill="#ffffff" stroke="#8a929b" stroke-width="1"/>
<text x="340" y="410.5" text-anchor="middle" font-size="10" font-weight="700" fill="#1b1b1b">22</text>
<rect x="127" y="426.0" width="150" height="22" rx="5" fill="#bfe3c0" stroke="#00000022" stroke-width="1"/>
<text x="267" y="436.0" text-anchor="end" font-size="12.5" font-weight="600" fill="#12401f">GPIO11</text>
<text x="137" y="436.0" text-anchor="start" font-size="9.5" fill="#12401f" opacity="0.75">SCLK · SPI</text>
<circle cx="300" cy="437.0" r="11" fill="#ffffff" stroke="#8a929b" stroke-width="1"/>
<text x="300" y="440.5" text-anchor="middle" font-size="10" font-weight="700" fill="#1b1b1b">23</text>
<rect x="363" y="426.0" width="150" height="22" rx="5" fill="#bfe3c0" stroke="#00000022" stroke-width="1"/>
<text x="373" y="436.0" text-anchor="start" font-size="12.5" font-weight="600" fill="#12401f">GPIO8</text>
<text x="503" y="436.0" text-anchor="end" font-size="9.5" fill="#12401f" opacity="0.75">CE0 · SPI</text>
<circle cx="340" cy="437.0" r="11" fill="#ffffff" stroke="#8a929b" stroke-width="1"/>
<text x="340" y="440.5" text-anchor="middle" font-size="10" font-weight="700" fill="#1b1b1b">24</text>
<rect x="127" y="456.0" width="150" height="22" rx="5" fill="#4c4c4c" stroke="#00000022" stroke-width="1"/>
<text x="267" y="466.0" text-anchor="end" font-size="12.5" font-weight="600" fill="#ffffff">GND</text>
<text x="137" y="466.0" text-anchor="start" font-size="9.5" fill="#ffffff" opacity="0.75">Ground</text>
<circle cx="300" cy="467.0" r="11" fill="#ffffff" stroke="#8a929b" stroke-width="1"/>
<text x="300" y="470.5" text-anchor="middle" font-size="10" font-weight="700" fill="#1b1b1b">25</text>
<rect x="363" y="456.0" width="150" height="22" rx="5" fill="#bfe3c0" stroke="#00000022" stroke-width="1"/>
<text x="373" y="466.0" text-anchor="start" font-size="12.5" font-weight="600" fill="#12401f">GPIO7</text>
<text x="503" y="466.0" text-anchor="end" font-size="9.5" fill="#12401f" opacity="0.75">CE1 · SPI</text>
<circle cx="340" cy="467.0" r="11" fill="#ffffff" stroke="#8a929b" stroke-width="1"/>
<text x="340" y="470.5" text-anchor="middle" font-size="10" font-weight="700" fill="#1b1b1b">26</text>
<rect x="127" y="486.0" width="150" height="22" rx="5" fill="#bfe3c0" stroke="#00000022" stroke-width="1"/>
<text x="267" y="496.0" text-anchor="end" font-size="12.5" font-weight="600" fill="#12401f">GPIO0</text>
<text x="137" y="496.0" text-anchor="start" font-size="9.5" fill="#12401f" opacity="0.75">ID EEPROM</text>
<circle cx="300" cy="497.0" r="11" fill="#ffffff" stroke="#8a929b" stroke-width="1"/>
<text x="300" y="500.5" text-anchor="middle" font-size="10" font-weight="700" fill="#1b1b1b">27</text>
<rect x="363" y="486.0" width="150" height="22" rx="5" fill="#bfe3c0" stroke="#00000022" stroke-width="1"/>
<text x="373" y="496.0" text-anchor="start" font-size="12.5" font-weight="600" fill="#12401f">GPIO1</text>
<text x="503" y="496.0" text-anchor="end" font-size="9.5" fill="#12401f" opacity="0.75">ID EEPROM</text>
<circle cx="340" cy="497.0" r="11" fill="#ffffff" stroke="#8a929b" stroke-width="1"/>
<text x="340" y="500.5" text-anchor="middle" font-size="10" font-weight="700" fill="#1b1b1b">28</text>
<rect x="127" y="516.0" width="150" height="22" rx="5" fill="#bfe3c0" stroke="#00000022" stroke-width="1"/>
<text x="267" y="526.0" text-anchor="end" font-size="12.5" font-weight="600" fill="#12401f">GPIO5</text>
<circle cx="300" cy="527.0" r="11" fill="#ffffff" stroke="#8a929b" stroke-width="1"/>
<text x="300" y="530.5" text-anchor="middle" font-size="10" font-weight="700" fill="#1b1b1b">29</text>
<rect x="363" y="516.0" width="150" height="22" rx="5" fill="#4c4c4c" stroke="#00000022" stroke-width="1"/>
<text x="373" y="526.0" text-anchor="start" font-size="12.5" font-weight="600" fill="#ffffff">GND</text>
<text x="503" y="526.0" text-anchor="end" font-size="9.5" fill="#ffffff" opacity="0.75">Ground</text>
<circle cx="340" cy="527.0" r="11" fill="#ffffff" stroke="#8a929b" stroke-width="1"/>
<text x="340" y="530.5" text-anchor="middle" font-size="10" font-weight="700" fill="#1b1b1b">30</text>
<rect x="127" y="546.0" width="150" height="22" rx="5" fill="#bfe3c0" stroke="#00000022" stroke-width="1"/>
<text x="267" y="556.0" text-anchor="end" font-size="12.5" font-weight="600" fill="#12401f">GPIO6</text>
<circle cx="300" cy="557.0" r="11" fill="#ffffff" stroke="#8a929b" stroke-width="1"/>
<text x="300" y="560.5" text-anchor="middle" font-size="10" font-weight="700" fill="#1b1b1b">31</text>
<rect x="363" y="546.0" width="150" height="22" rx="5" fill="#bfe3c0" stroke="#00000022" stroke-width="1"/>
<text x="373" y="556.0" text-anchor="start" font-size="12.5" font-weight="600" fill="#12401f">GPIO12</text>
<circle cx="340" cy="557.0" r="11" fill="#ffffff" stroke="#8a929b" stroke-width="1"/>
<text x="340" y="560.5" text-anchor="middle" font-size="10" font-weight="700" fill="#1b1b1b">32</text>
<rect x="127" y="576.0" width="150" height="22" rx="5" fill="#bfe3c0" stroke="#00000022" stroke-width="1"/>
<text x="267" y="586.0" text-anchor="end" font-size="12.5" font-weight="600" fill="#12401f">GPIO13</text>
<circle cx="300" cy="587.0" r="11" fill="#ffffff" stroke="#8a929b" stroke-width="1"/>
<text x="300" y="590.5" text-anchor="middle" font-size="10" font-weight="700" fill="#1b1b1b">33</text>
<rect x="363" y="576.0" width="150" height="22" rx="5" fill="#4c4c4c" stroke="#00000022" stroke-width="1"/>
<text x="373" y="586.0" text-anchor="start" font-size="12.5" font-weight="600" fill="#ffffff">GND</text>
<text x="503" y="586.0" text-anchor="end" font-size="9.5" fill="#ffffff" opacity="0.75">Ground</text>
<circle cx="340" cy="587.0" r="11" fill="#ffffff" stroke="#8a929b" stroke-width="1"/>
<text x="340" y="590.5" text-anchor="middle" font-size="10" font-weight="700" fill="#1b1b1b">34</text>
<rect x="127" y="606.0" width="150" height="22" rx="5" fill="#bfe3c0" stroke="#00000022" stroke-width="1"/>
<text x="267" y="616.0" text-anchor="end" font-size="12.5" font-weight="600" fill="#12401f">GPIO19</text>
<circle cx="300" cy="617.0" r="11" fill="#ffffff" stroke="#8a929b" stroke-width="1"/>
<text x="300" y="620.5" text-anchor="middle" font-size="10" font-weight="700" fill="#1b1b1b">35</text>
<rect x="363" y="606.0" width="150" height="22" rx="5" fill="#bfe3c0" stroke="#00000022" stroke-width="1"/>
<text x="373" y="616.0" text-anchor="start" font-size="12.5" font-weight="600" fill="#12401f">GPIO16</text>
<circle cx="340" cy="617.0" r="11" fill="#ffffff" stroke="#8a929b" stroke-width="1"/>
<text x="340" y="620.5" text-anchor="middle" font-size="10" font-weight="700" fill="#1b1b1b">36</text>
<rect x="127" y="636.0" width="150" height="22" rx="5" fill="#bfe3c0" stroke="#00000022" stroke-width="1"/>
<text x="267" y="646.0" text-anchor="end" font-size="12.5" font-weight="600" fill="#12401f">GPIO26</text>
<circle cx="300" cy="647.0" r="11" fill="#ffffff" stroke="#8a929b" stroke-width="1"/>
<text x="300" y="650.5" text-anchor="middle" font-size="10" font-weight="700" fill="#1b1b1b">37</text>
<rect x="363" y="636.0" width="150" height="22" rx="5" fill="#bfe3c0" stroke="#00000022" stroke-width="1"/>
<text x="373" y="646.0" text-anchor="start" font-size="12.5" font-weight="600" fill="#12401f">GPIO20</text>
<circle cx="340" cy="647.0" r="11" fill="#ffffff" stroke="#8a929b" stroke-width="1"/>
<text x="340" y="650.5" text-anchor="middle" font-size="10" font-weight="700" fill="#1b1b1b">38</text>
<rect x="127" y="666.0" width="150" height="22" rx="5" fill="#4c4c4c" stroke="#00000022" stroke-width="1"/>
<text x="267" y="676.0" text-anchor="end" font-size="12.5" font-weight="600" fill="#ffffff">GND</text>
<text x="137" y="676.0" text-anchor="start" font-size="9.5" fill="#ffffff" opacity="0.75">Ground</text>
<circle cx="300" cy="677.0" r="11" fill="#ffffff" stroke="#8a929b" stroke-width="1"/>
<text x="300" y="680.5" text-anchor="middle" font-size="10" font-weight="700" fill="#1b1b1b">39</text>
<rect x="363" y="666.0" width="150" height="22" rx="5" fill="#bfe3c0" stroke="#00000022" stroke-width="1"/>
<text x="373" y="676.0" text-anchor="start" font-size="12.5" font-weight="600" fill="#12401f">GPIO21</text>
<circle cx="340" cy="677.0" r="11" fill="#ffffff" stroke="#8a929b" stroke-width="1"/>
<text x="340" y="680.5" text-anchor="middle" font-size="10" font-weight="700" fill="#1b1b1b">40</text>
<text x="24" y="689" font-size="12" font-weight="700" fill="#1b1b1b">Legend</text>
<rect x="24" y="695" width="16" height="14" rx="3" fill="#f5b0a8" stroke="#00000022"/>
<text x="46" y="706" font-size="12" fill="#1b1b1b">3V3 power</text>
<rect x="124" y="695" width="16" height="14" rx="3" fill="#f4c886" stroke="#00000022"/>
<text x="146" y="706" font-size="12" fill="#1b1b1b">5V power</text>
<rect x="218" y="695" width="16" height="14" rx="3" fill="#4c4c4c" stroke="#00000022"/>
<text x="240" y="706" font-size="12" fill="#1b1b1b">Ground</text>
<rect x="300" y="695" width="16" height="14" rx="3" fill="#bfe3c0" stroke="#00000022"/>
<text x="322" y="706" font-size="12" fill="#1b1b1b">GPIO</text>
<rect x="370" y="695" width="16" height="14" rx="3" fill="#ffffff" stroke="#e07b1a" stroke-width="3"/>
<text x="392" y="706" font-size="12" fill="#1b1b1b">sensor pin</text>
<text x="24" y="735" font-size="12.5" fill="#1b1b1b"><tspan font-weight="700">Sensor:</tspan> VCC → pin 1 (3V3) · GND → pin 6 · OUT → pin 18 (GPIO24)</text>
<text x="24" y="753" font-size="11" fill="#b42318">⚠ Power from 3V3, not 5V — the Pi’s GPIO is 3.3V-only and not 5V-tolerant.</text>
</svg>